<svg id="Layer_1" data-name="Layer 1" xmlns="http://www.w3.org/2000/svg" viewBox="0 0 150.47 52.83"><defs><style>.cls-1{fill:#f2aa13;}.cls-2{font-size:27.91px;font-family:VAGRounded-Light, VAGRounded-Light;}.cls-3{fill:#3061ac;}</style></defs><title>WhyCS-Logo</title><rect class="cls-1" x="59.29" y="70.26" width="8.39" height="41.61" rx="4.2" ry="4.2" transform="translate(67.42 127.31) rotate(-159.44)"/><rect x="29.36" y="70.26" width="8.39" height="41.61" rx="4.2" ry="4.2" transform="translate(-53.37 -53.74) rotate(-20.56)"/><rect x="47.61" y="70.26" width="8.39" height="41.61" rx="4.2" ry="4.2" transform="translate(-52.21 -47.34) rotate(-20.56)"/><text class="cls-2" transform="translate(48.43 38.85)">hy</text><path id="Shape" class="cls-3" d="M139.38,78.2A1.63,1.63,0,1,0,141,79.83a1.64,1.64,0,0,0-1.65-1.63Zm-12.52,34.36a20.58,20.58,0,1,1,0-41.16,18.21,18.21,0,0,1,11.37,3.74.76.76,0,0,0,.6.16,4.93,4.93,0,0,1,.55,0,4.56,4.56,0,1,1-4.61,4.56,3.6,3.6,0,0,1,0-.66.81.81,0,0,0-.33-.76,13.58,13.58,0,0,0-7.63-2.35A15,15,0,0,0,116,80.46a17.2,17.2,0,0,0,0,23,15.05,15.05,0,0,0,10.84,4.43,13.34,13.34,0,0,0,10.62-5.21l.67-.77a2.73,2.73,0,0,1,1.77-.67,2.38,2.38,0,0,1,1.42.45,2.34,2.34,0,0,1,.95,1.7,2.7,2.7,0,0,1-.29,1.52l-.34.52a18.36,18.36,0,0,1-14.8,7.11Z" transform="translate(-23.53 -71.32)"/><path id="Shape-2" data-name="Shape" class="cls-3" d="M147.08,115.39a1.51,1.51,0,1,0,1.62,1.51,1.57,1.57,0,0,0-1.62-1.51Zm12.57,8.76a20.69,20.69,0,0,1-11.11-3,.86.86,0,0,0-.61-.12,4,4,0,0,1-.85.08,4.22,4.22,0,1,1-.35-8.42,4.42,4.42,0,0,1,4.89,4.2v.2a.72.72,0,0,0,.35.66,15.16,15.16,0,0,0,7.79,2.09c3.15,0,5.57-.68,7.16-2a5.45,5.45,0,0,0,2-4.24c0-4.37-4.67-5.58-10-7-3-.78-6.14-1.58-8.54-3.06a8,8,0,0,1-4.22-7.27,9,9,0,0,1,4-7.49,16,16,0,0,1,9.35-2.71c5.31,0,9.8,1.62,13,4.69.19.18.37.37.55.56l.37.38a2.28,2.28,0,0,1-.11,3.37,2.41,2.41,0,0,1-1.51.51,2.85,2.85,0,0,1-2.08-.9.27.27,0,0,0-.07-.08h0l0,0v0a13.3,13.3,0,0,0-10.24-4.15c-4.66,0-8.05,2.41-8.05,5.73,0,3.52,4.05,4.58,9.19,5.92,3.18.83,6.47,1.69,9.07,3.32a8.89,8.89,0,0,1,4.54,8,9.76,9.76,0,0,1-3.16,7.26c-2.53,2.34-6.29,3.52-11.19,3.52Z" transform="translate(-23.53 -71.32)"/></svg>